<svg width="1600px" height="149px" viewBox="0 0 1600 149" version="1.1" xmlns="http://www.w3.org/2000/svg" xmlns:xlink="http://www.w3.org/1999/xlink">
    <title>Shape</title>
    <g id="Page-Designs" stroke="none" stroke-width="1" fill="none" fill-rule="evenodd">
        <g id="asset-page-1600" transform="translate(0, -608)" fill="#000">
            <path d="M1600,608 L1600,676.416435 C1598.35411,680.245957 1597.76672,684.759946 1598.9223,690.498939 C1599.24132,692.083167 1599.60277,693.617455 1600,695.104837 L1600,756.74042 C1583.65779,759.694949 1570.25965,736.491499 1547.0853,734.653753 C1533.64409,733.587853 1526.59547,734.879956 1519.72016,736.235922 L1516.98964,736.771455 L1515.58095,737.036082 C1509.54068,738.141072 1502.7185,738.957587 1491.20834,738.044771 C1478.80124,737.060877 1472.22057,733.302147 1466.23396,729.260562 L1465.00211,728.421153 L1463.41934,727.332935 L1462.00231,726.368722 L1461.07517,725.751735 C1455.36966,722.000168 1448.85778,718.632709 1437.21426,717.709316 C1424.36028,716.689929 1417.10555,720.940027 1410.24019,725.556556 L1407.082,727.694237 L1406.10162,728.347316 C1399.53983,732.67679 1392.38567,736.448774 1380.1963,735.482093 L1377.47405,735.257039 L1374.83533,735.020058 C1365.92238,734.185367 1360.30631,733.296954 1355.14898,732.401157 L1353.32179,732.080993 L1348.72844,731.279646 L1346.85329,730.96782 C1341.75024,730.137973 1335.7303,729.323186 1326.49652,728.560961 L1325.14805,728.451857 C1312.22817,727.427243 1305.5507,724.35061 1299.27753,721.141073 L1296.52214,719.724889 L1295.21451,719.064143 C1289.4471,716.187424 1282.97856,713.541183 1271.47686,712.549453 L1270.80816,712.494121 C1258.24872,711.498146 1251.56305,708.876612 1245.41149,706.107299 L1241.6137,704.382128 L1240.62506,703.942054 C1234.76504,701.361029 1228.14982,698.989051 1216.34641,698.052979 L1188.93981,695.84017 L1163.1564,693.75499 L1105.84012,689.171159 C1093.25312,688.172889 1086.21602,689.956863 1079.67181,691.987937 L1076.05312,693.126139 C1069.57053,695.145389 1062.65106,696.945624 1050.35874,696.052366 L1049.69505,696.001922 C1037.56536,695.039868 1030.8677,693.160208 1024.83192,691.168719 L1019.87117,689.506505 L1018.51624,689.065724 C1012.80928,687.239512 1006.23329,685.560074 994.992603,684.668579 C982.899461,683.709424 975.776273,687.246211 969.271797,691.342816 L968.283816,691.971547 L967.401423,692.541342 L965.641611,693.685436 L964.759212,694.255232 L964.101449,694.675197 L963.107437,695.298483 C956.777997,699.215183 949.733139,702.48484 938.04929,701.558199 C925.400047,700.554992 918.900183,695.503819 912.918759,690.111372 L912.053491,689.32662 L909.826187,687.296172 L908.960165,686.518984 L908.084015,685.748463 C902.495038,680.894843 896.070013,676.59157 884.501552,675.67408 C871.647581,674.654693 864.392521,678.910723 857.5268,683.533597 L854.368455,685.674214 L853.388024,686.328192 L852.415016,686.963299 C846.110007,691.023693 839.071963,694.393405 827.48207,693.474266 C814.495613,692.444429 807.975886,687.322759 801.844004,681.955421 L799.306101,679.724624 L798.434515,678.96912 C792.595364,673.950496 786.099889,669.34689 773.862735,668.375852 C761.156086,667.368148 754.157883,668.529506 747.617513,669.864828 L743.941026,670.623418 L742.534047,670.903207 C736.561706,672.062128 729.862475,672.94485 718.642581,672.109837 L712.255842,671.621763 L708.859365,671.380897 C701.74143,670.892866 696.863109,670.669513 692.266843,670.479492 L684.732278,670.163155 C679.766386,669.93675 673.989319,669.61448 665.319643,668.950362 L662.619143,668.739774 C634.989906,666.54863 634.756831,669.487412 607.126071,667.296269 L605.764577,667.183482 C593.271919,666.103404 586.719939,664.264889 580.358527,662.402024 L578.25503,661.786354 L577.407181,661.540909 L576.019152,661.146773 C570.524977,659.610443 564.256971,658.172889 553.848981,657.263851 L552.324606,657.136917 C539.859822,656.148448 533.128206,654.217944 526.957207,652.195347 L522.354683,650.674875 L520.981316,650.236098 C515.425051,648.491309 509.018913,646.88619 498.294687,645.990628 L497.605402,645.934524 C484.786301,644.917308 478.048955,642.672157 471.750499,640.338392 L468.223653,639.026365 C462.091802,636.772819 455.381224,634.63612 442.966937,633.651026 C430.825229,632.688231 423.58185,637.650558 416.93212,643.330974 L416.000472,644.133979 L412.40664,647.282831 L411.786279,647.819061 C405.050421,653.609734 397.771597,658.743623 385.440175,657.765785 C373.206384,656.795581 366.527208,654.522573 360.483656,652.100483 L358.98685,651.494028 L356.475039,650.468327 C350.372203,647.997571 343.791274,645.63895 331.568832,644.603513 L330.883971,644.547358 C318.841623,643.591673 312.141469,641.875223 306.126663,640.061302 L304.774529,639.649222 L301.458324,638.627999 L299.725376,638.108685 C294.106975,636.457283 287.662988,634.923595 276.790319,634.020823 L276.117543,633.966222 C262.865326,632.915368 256.133795,630.289878 249.668415,627.600118 L247.157736,626.555735 C240.944649,623.993483 234.235277,621.551075 221.57048,620.546801 C208.58259,619.516248 201.290485,624.118061 194.340284,629.057974 L191.519241,631.072423 C184.618321,635.967715 177.339565,640.489381 164.455026,639.467682 C151.935384,638.474338 145.527417,632.393011 139.693577,625.833723 L138.656617,624.658155 L136.823452,622.563551 C130.784129,615.694655 124.374522,609.134022 111.327737,608.098852 C110.826975,608.059144 110.334845,608.025737 109.851034,607.998404 L1600,608 Z M85.1828631,613.309784 L83.8903149,613.962684 L82.1505091,614.850465 L81.2780803,615.292513 C74.5733318,618.669782 67.4234976,634.658952 54.7119464,633.651026 C43.2494479,632.741609 37.3283063,629.377349 31.8042727,625.594667 L30.9030495,624.972279 L30.0039063,624.344404 L26.3128914,620.487025 L25.6933236,620.055849 C19.7769892,615.957434 12.9411603,611.832165 0.745284184,610.865234 L0,626.281084 L0,608 L103.429842,607.999023 C95.5928945,608.488201 90.2324395,610.785477 85.1828631,613.309784 L85.1828631,613.309784 Z" id="Shape"></path>
        </g>
    </g>
</svg>