<?xml version="1.0" encoding="UTF-8"?>
<svg width="1600px" height="149px" viewBox="0 0 1600 149" version="1.1" xmlns="http://www.w3.org/2000/svg" xmlns:xlink="http://www.w3.org/1999/xlink">
    <title>Path</title>
    <g id="Page-Designs" stroke="none" stroke-width="1" fill="none" fill-rule="evenodd">
        <g id="asset-page-1600" transform="translate(0, -231)" fill="#FFFFFF">
            <path d="M88.4175519,231.250665 C115.770497,233.421404 114.922747,247.575982 141.711678,249.984921 L143.868753,250.165814 C155.261443,251.164154 161.700557,252.982011 167.553414,254.896857 L172.212894,256.442089 C178.294106,258.432064 185.005091,260.31785 197.246614,261.288667 C210.508647,262.340416 217.764662,258.355348 224.780437,254.168807 L226.532712,253.120773 C233.548486,248.934232 240.804501,244.949163 254.066535,246.000912 C266.525496,246.988919 272.990588,252.264757 278.867051,257.961583 L279.998532,259.068413 L280.772424,259.832219 C281.613096,260.662811 282.453766,261.493402 283.310787,262.312294 L283.884736,262.85636 L284.454724,263.387079 C289.900025,268.407142 296.258518,272.773829 307.47717,273.663527 C320.279839,274.678789 327.536989,270.355647 334.387634,265.641182 L337.545369,263.451335 L338.201496,263.00151 C338.420707,262.852052 338.640477,262.703132 338.860972,262.554909 L339.524797,262.112494 C345.854944,257.932474 352.908881,254.449212 364.539306,255.371514 C376.864076,256.348987 383.485506,259.474601 389.492135,262.831776 L391.252358,263.827758 L393.013974,264.830775 L394.298756,265.550485 C400.179071,268.803451 406.771542,271.788186 418.763416,272.739257 C431.21922,273.727067 438.216672,272.291744 444.677377,270.618079 L448.343747,269.651131 L449.731541,269.293278 C455.848343,267.745903 462.627795,266.49263 474.139095,267.339854 L474.795759,267.390065 C486.970683,268.355654 493.691933,270.007564 499.766137,271.740903 L504.759316,273.185002 C510.798586,274.904385 517.510228,276.539153 529.595701,277.497647 L531.592548,277.653037 C541.983061,278.445593 548.29474,278.668949 553.917345,278.796158 L560.370983,278.928928 C565.933314,279.052144 572.117844,279.262206 582.246657,280.022724 L584.980614,280.233911 C598.020895,281.268131 605.13253,278.961276 611.912161,276.467322 L614.406777,275.545317 L615.271307,275.229817 L616.303555,274.860968 C622.532398,272.667799 629.473994,270.8763 641.252124,271.810419 C653.535257,272.78459 659.838253,279.86415 665.478586,287.620253 L666.440001,288.955485 L668.317226,291.598569 C669.029169,292.599573 669.745022,293.596586 670.475898,294.578261 L670.965496,295.230314 L671.468053,295.887136 C676.691404,302.643395 682.893805,308.400098 693.881274,309.27151 C705.735306,310.211597 712.586773,309.699512 718.728271,308.981333 L720.325995,308.789034 L723.942314,308.34149 C730.178713,307.589713 736.962997,306.996979 748.910375,307.903016 L749.592187,307.95591 C761.472482,308.898028 768.613863,304.785527 775.091475,299.965159 L776.053212,299.24147 L776.693822,298.752123 L779.788603,296.361957 L780.418448,295.881089 C787.151305,290.767318 794.397536,286.201292 806.850837,287.189535 C819.560286,288.197461 826.196458,291.601267 832.346769,295.196744 L835.540931,297.078441 L836.499962,297.634517 L837.14594,298.002621 C842.880543,301.242976 849.423056,304.164614 861.036863,305.08565 C873.575512,306.079975 880.613057,304.243448 887.142225,302.145311 L890.780917,300.958739 C897.403986,298.817087 904.465826,296.901225 917.215448,297.912282 C930.477482,298.96403 937.040306,303.711737 943.33533,308.607451 L945.635137,310.396446 C951.615689,315.009731 958.057107,319.369019 970.395753,320.475286 L971.028251,320.528719 C983.997077,321.557215 990.716047,324.151085 997.052373,326.840795 L999.112539,327.719384 C999.55805,327.909158 1000.00483,328.098615 1000.45492,328.287241 L1001.79174,328.83975 C1007.53261,331.174435 1014.10943,333.299745 1025.54942,334.206996 C1038.04905,335.198228 1045.13444,332.712457 1051.7042,329.895543 L1053.08138,329.298703 L1055.65597,328.176794 C1062.16103,325.378315 1069.13028,322.877927 1081.33807,323.741724 L1081.98545,323.790309 C1094.75026,324.802514 1101.79063,323.176843 1108.3954,321.350595 L1112.07599,320.324687 C1118.55895,318.547528 1125.56823,317.013072 1138.0574,318.004107 C1150.94278,319.025816 1157.56545,322.773905 1163.76574,326.705805 L1166.44634,328.415149 C1172.5415,332.280406 1179.04452,335.968031 1191.50377,337.062558 L1192.15355,337.116847 C1205.41558,338.168595 1212.10511,341.316884 1218.53174,344.549202 L1221.19259,345.886228 C1227.31326,348.927787 1233.97681,351.796347 1246.51476,352.791364 C1259.95532,353.857271 1267.18634,350.263319 1274.24922,346.543193 L1276.48268,345.368669 L1277.15849,345.018594 C1283.70863,341.647546 1290.81545,338.694245 1303.16254,339.673434 C1316.27253,340.71301 1322.8776,344.849698 1329.15019,349.144846 L1331.17355,350.534816 L1331.79181,350.95668 C1337.88625,355.097955 1344.48105,359.001177 1357.1612,360.007367 C1369.80297,361.009815 1376.99943,357.291568 1383.73318,353.172063 L1386.93278,351.192346 L1387.60098,350.782334 C1394.29745,346.69476 1401.48275,343.030816 1414.04358,344.02679 C1427.45465,345.090922 1434.4716,344.197251 1441.30075,343.246075 L1444.28858,342.833125 C1450.60768,341.984262 1457.52555,341.318735 1469.79714,342.292452 C1484.16672,343.431847 1490.68598,348.743342 1497.51904,353.888166 L1498.61359,354.707291 L1499.53288,355.383278 L1500.14178,355.82242 C1505.65059,359.759447 1511.98278,363.258955 1523.04531,364.244611 L1525.0372,364.411945 C1536.95281,365.468528 1543.43543,367.551987 1549.50264,369.713959 L1553.14756,371.018028 C1559.26569,373.17875 1565.97886,375.227004 1578.34286,376.20721 C1587.48152,376.932258 1594.30172,374.34358 1600.00127,371.304225 L1600.00127,380 L-4.54747351e-13,380 L-4.54747351e-13,234.255954 C7.98236589,233.134046 14.3370643,238.412485 32.1277609,239.82338 C45.3905259,240.875129 52.5240771,238.437206 59.4124598,235.859696 L61.8352675,234.952534 L63.0603985,234.503493 L63.7420232,234.259793 C69.9026678,232.081308 76.8145424,230.330536 88.4175519,231.250665 Z" id="Path"></path>
        </g>
    </g>
</svg>