<svg width="105" height="101" viewBox="0 0 105 101" fill="none" xmlns="http://www.w3.org/2000/svg">
<mask id="mask0_1005_14" style="mask-type:luminance" maskUnits="userSpaceOnUse" x="0" y="0" width="105" height="101">
<path d="M104.961 0H0V101H104.961V0Z" fill="white"/>
</mask>
<g mask="url(#mask0_1005_14)">
<path d="M105.54 49.9192C105.54 52.791 103.592 55.7113 103.109 58.4456C102.612 61.2567 102.622 64.3732 101.661 66.9962C100.681 69.6658 99.8212 72.7176 98.4073 75.1444C96.9791 77.5935 93.1245 78.5036 91.3011 80.6595C89.4736 82.8194 87.7134 84.9469 85.5375 86.763C83.3678 88.5731 80.8782 89.7966 78.411 91.2143C75.9662 92.6178 73.8107 94.5633 71.1214 95.5341C68.479 96.4886 66.1891 99.8862 63.3572 100.378C60.6027 100.857 57.29 99.595 54.3971 99.595C51.5041 99.595 48.6824 98.0702 45.9279 97.5929C43.096 97.0994 39.9789 97.4007 37.3386 96.4462C34.6493 95.4734 33.3393 91.7381 30.8945 90.3346C28.4273 88.9169 24.1245 90.1101 21.9527 88.3C19.7768 86.486 17.6825 84.1845 15.853 82.0246C14.0296 79.8707 14.545 76.0241 13.1168 73.575C11.7029 71.1482 11.9026 68.2966 10.9247 65.6271C9.96311 63.004 4.46621 61.558 3.96921 58.7449C3.48621 56.0106 5.47721 52.791 5.47721 49.9212C5.47721 47.0514 7.53461 44.5356 8.01741 41.8013C8.51451 38.9902 9.93251 36.8283 10.8941 34.2052C11.8741 31.5357 8.29041 26.7325 9.70431 24.3057C11.1325 21.8565 14.433 20.3054 16.2543 18.1515C18.0818 15.9916 21.7775 15.7206 23.9534 13.9065C26.1231 12.0965 26.1822 7.07896 28.6514 5.66126C31.0962 4.25766 35.9776 7.99706 38.6669 7.02436C41.3093 6.06976 42.8882 1.58206 45.7221 1.09066C48.4746 0.609361 51.502 -0.513037 54.395 -0.513037C57.288 -0.513037 60.4662 -0.250033 63.2207 0.228967C66.0526 0.722567 68.8376 2.36877 71.48 3.32337C74.1693 4.29617 76.8687 5.67337 79.3135 7.07697C81.7807 8.49457 82.6119 12.1592 84.7837 13.9692C86.9596 15.7833 89.9687 16.6064 91.7962 18.7684C93.6196 20.9222 95.8056 22.9203 97.2317 25.3694C98.6457 27.7963 98.3156 31.0281 99.2956 33.6956C100.257 36.3186 103.7 38.3896 104.197 41.2027C104.68 43.937 105.542 47.0474 105.542 49.9192L105.54 49.9192Z" fill="black"/>
<path d="M17.7412 10.9269C17.1586 11.564 17.0119 12.2192 16.3518 12.6722C15.6672 13.1435 15.1966 14.2497 14.4856 14.5106C13.7664 14.7755 13.0228 14.7998 12.3301 14.8402C11.6456 14.8807 10.5515 15.5461 9.94852 15.3539C9.36582 15.1699 9.23953 14.1263 8.78313 13.7138C8.32683 13.3012 8.18823 12.6439 7.94783 12.0858C7.69933 11.5074 6.58282 11.2768 6.55842 10.5953C6.53392 9.9076 7.53223 8.8742 7.72983 8.1381C7.92543 7.41 7.38553 6.4372 7.79303 5.7173C8.18623 5.0216 8.87283 4.0812 9.45543 3.4441C10.0381 2.807 10.9386 2.0871 11.5987 1.6341C12.2832 1.1628 13.253 0.560205 13.964 0.297305C14.6832 0.0323053 15.7732 -0.4717 16.4659 -0.511701C17.1504 -0.551701 18.0835 -0.305698 18.6866 -0.113698C19.2692 0.070302 19.9415 0.6289 20.3959 1.0395C20.8522 1.452 20.294 2.8738 20.5344 3.432C20.783 4.0104 21.5307 4.3784 21.5551 5.06C21.5795 5.7476 20.7626 6.6597 20.565 7.3958C20.3694 8.1239 20.186 8.79941 19.7786 9.51931C19.3854 10.215 18.3219 10.2879 17.7392 10.9249L17.7412 10.9269Z" fill="black"/>
<path d="M6.56035 36.7469C6.56035 37.6489 5.84315 38.3406 5.24815 38.9311C4.65115 39.5237 3.95615 39.8108 3.04815 39.8108C2.13915 39.8108 0.909148 40.0515 0.314148 39.461C-0.282852 38.8684 0.00415034 37.6489 0.00415032 36.7469C0.0041503 35.8449 0.460152 35.3616 1.05715 34.769C1.65415 34.1765 2.13915 33.2462 3.05015 33.2462C3.96115 33.2462 4.96515 33.6608 5.56205 34.2533C6.15895 34.8459 6.56445 35.8449 6.56445 36.7469L6.56035 36.7469Z" fill="black"/>
<mask id="mask1_1005_14" style="mask-type:luminance" maskUnits="userSpaceOnUse" x="36" y="31" width="38" height="41">
<path d="M73.6275 31.6895H36V71.2973H73.6275V31.6895Z" fill="white"/>
</mask>
<g mask="url(#mask1_1005_14)">
<path d="M36 54.8337V48.1532H63.0858L49.9162 36.3956L54.6495 31.6895L73.6275 49.2666V53.7054L54.6495 71.2825L49.8714 66.532L63.1007 54.8337H36Z" fill="#FEC34A"/>
</g>
</g>
</svg>
