<svg width="105" height="101" viewBox="0 0 105 101" fill="none" xmlns="http://www.w3.org/2000/svg">
<g clip-path="url(#clip0_2010_71)">
<path d="M0.00426161 50.5648C0.00426186 47.693 1.95194 44.7727 2.43478 42.0384C2.93189 39.2273 2.92171 36.1108 3.88332 33.4878C4.86327 30.8182 5.72302 27.7664 7.13692 25.3396C8.56509 22.8905 12.4197 21.9804 14.2431 19.8245C16.0706 17.6646 17.8308 15.5371 20.0067 13.721C22.1764 11.9109 24.666 10.6874 27.1332 9.2697C29.578 7.86617 31.7335 5.92063 34.4228 4.94988C37.0652 3.99532 39.3551 0.597712 42.187 0.106272C44.9415 -0.373037 48.2542 0.888934 51.1471 0.888934C54.0401 0.888935 56.8618 2.41381 59.6163 2.89109C62.4482 3.38456 65.5653 3.08323 68.2056 4.03779C70.8949 5.01056 72.2049 8.74591 74.6497 10.1494C77.1169 11.5671 81.4197 10.3739 83.5915 12.184C85.7674 13.998 87.8617 16.2995 89.6912 18.4594C91.5146 20.6133 90.9992 24.4599 92.4274 26.909C93.8413 29.3358 93.6416 32.1874 94.6195 34.8569C95.5811 37.48 101.078 38.926 101.575 41.7391C102.058 44.4734 100.067 47.693 100.067 50.5628C100.067 53.4326 98.0096 55.9484 97.5268 58.6827C97.0297 61.4938 95.6117 63.6557 94.6501 66.2788C93.6701 68.9483 97.2538 73.7515 95.8399 76.1783C94.4117 78.6275 91.1112 80.1786 89.2899 82.3325C87.4624 84.4924 83.7667 84.7634 81.5908 86.5775C79.4211 88.3875 79.362 93.405 76.8928 94.8227C74.448 96.2263 69.5666 92.4869 66.8773 93.4596C64.2349 94.4142 62.656 98.9019 59.8221 99.3933C57.0696 99.8746 54.0422 100.997 51.1492 100.997C48.2562 100.997 45.078 100.734 42.3235 100.255C39.4916 99.7614 36.7066 98.1152 34.0642 97.1606C31.3749 96.1878 28.6755 94.8106 26.2307 93.407C23.7635 91.9894 22.9323 88.3248 20.7605 86.5148C18.5846 84.7007 15.5755 83.8776 13.748 81.7156C11.9246 79.5618 9.73858 77.5637 8.31246 75.1146C6.89855 72.6877 7.2286 69.4559 6.24864 66.7884C5.28703 64.1654 1.84396 62.0944 1.34685 59.2813C0.86401 56.547 0.00221668 53.4366 0.00221693 50.5648L0.00426161 50.5648Z" fill="black"/>
<path d="M87.803 89.5564C88.3856 88.9193 88.5323 88.2641 89.1924 87.8111C89.877 87.3398 90.3476 86.2336 91.0586 85.9727C91.7778 85.7078 92.5214 85.6835 93.2141 85.6431C93.8986 85.6026 94.9927 84.9372 95.5957 85.1294C96.1784 85.3134 96.3047 86.357 96.7611 86.7695C97.2174 87.1821 97.356 87.8394 97.5964 88.3975C97.8449 88.9759 98.9614 89.2065 98.9858 89.888C99.0103 90.5757 98.012 91.6091 97.8144 92.3452C97.6188 93.0733 98.1587 94.0461 97.7512 94.766C97.358 95.4617 96.6714 96.4021 96.0888 97.0392C95.5061 97.6763 94.6056 98.3962 93.9455 98.8492C93.261 99.3205 92.2912 99.9231 91.5802 100.186C90.861 100.451 89.771 100.955 89.0783 100.995C88.3938 101.035 87.4607 100.789 86.8576 100.597C86.275 100.413 85.6027 99.8544 85.1483 99.4438C84.692 99.0313 85.2502 97.6095 85.0098 97.0513C84.7612 96.4729 84.0135 96.1049 83.9891 95.4233C83.9647 94.7357 84.7816 93.8236 84.9792 93.0875C85.1748 92.3594 85.3582 91.6839 85.7656 90.964C86.1588 90.2683 87.2223 90.1954 87.805 89.5584L87.803 89.5564Z" fill="black"/>
<path d="M98.9838 63.7367C98.9838 62.8347 99.701 62.143 100.296 61.5525C100.893 60.9599 101.588 60.6728 102.496 60.6728C103.405 60.6728 104.635 60.4321 105.23 61.0226C105.827 61.6152 105.54 62.8347 105.54 63.7367C105.54 64.6387 105.084 65.122 104.487 65.7146C103.89 66.3071 103.405 67.2374 102.494 67.2374C101.583 67.2374 100.579 66.8228 99.9821 66.2303C99.3852 65.6377 98.9797 64.6387 98.9797 63.7367L98.9838 63.7367Z" fill="black"/>
<g clip-path="url(#clip1_2010_71)">
<path d="M32 54.8341V48.1536H59.0858L45.9162 36.396L50.6495 31.6899L69.6275 49.267V53.7058L50.6495 71.2829L45.8714 66.5324L59.1007 54.8341H32Z" fill="#FEC34A"/>
</g>
</g>
<defs>
<clipPath id="clip0_2010_71">
<rect width="104.961" height="101" fill="white"/>
</clipPath>
<clipPath id="clip1_2010_71">
<rect width="37.6275" height="39.6078" fill="white" transform="translate(32 31.6899)"/>
</clipPath>
</defs>
</svg>
