
<svg width="65px" height="53px" viewBox="0 0 65 53" version="1.1" xmlns="http://www.w3.org/2000/svg" xmlns:xlink="http://www.w3.org/1999/xlink">
    <g id="Page-Designs" stroke="none" stroke-width="1" fill="none" fill-rule="evenodd">
        <g id="Page-Builder-Modules-R1" transform="translate(-143.000000, -11437.000000)" fill="#FEC34A">
            <g id="Testimonial" transform="translate(119.000000, 11392.000000)">
                <g id="Quotes" transform="translate(24.000000, 45.000000)">
                    <path d="M63.2513403,0 L63.2513403,12.0816161 C59.6515295,12.0816161 56.9157994,13.1594595 55.0488805,15.3167221 C53.1756544,17.4755606 52.2421949,20.7847289 52.2421949,25.2410757 L52.2421949,29.3412928 L64.7619048,29.3412928 L64.7619048,52.8568736 L39.9369284,52.8568736 C38.6423841,48.5423483 37.7041943,44.4421311 37.1302428,40.5593736 C36.5547146,36.676616 36.2677389,33.0081665 36.2677389,29.5571767 C36.2677389,20.2095639 38.4973195,12.9451515 42.9596342,7.76709089 C47.4187953,2.5890303 54.1847997,0 63.2513403,0 M26.9851782,0 L26.9851782,12.0816161 C23.3853674,12.0816161 20.6874803,13.1594595 18.8883633,15.3167221 C17.0876695,17.4755606 16.1904762,20.7847289 16.1904762,25.2410757 L16.1904762,29.3412928 L28.4957427,29.3412928 L28.4957427,52.8568736 L3.67076632,52.8568736 C2.37464522,48.5423483 1.43645538,44.4421311 0.864080732,40.5593736 C0.286975717,36.676616 0,33.0081665 0,29.5571767 C0,20.2095639 2.22958057,12.9451515 6.6918953,7.76709089 C11.1510564,2.5890303 17.9186377,0 26.9851782,0" id="Fill-1"></path>
                </g>
            </g>
        </g>
    </g>
</svg>