
<svg width="94px" height="87px" viewBox="0 0 94 87" version="1.1" xmlns="http://www.w3.org/2000/svg" xmlns:xlink="http://www.w3.org/1999/xlink">
    <title>Icon: article</title>
    <g id="Page-Designs" stroke="none" stroke-width="1" fill="none" fill-rule="evenodd">
        <g id="Page-Builder-Modules-R1" transform="translate(-818.000000, -10486.000000)">
            <g id="Resource-Tile-Copy-2" transform="translate(731.000000, 10466.000000)">
                <g id="Group-4" transform="translate(87.049057, 20.759132)">
                    <path d="M15.3655116,65.9667384 C13.768846,60.8517677 17.1077815,52.9647117 13.9124596,47.7691095 C9.87247804,41.2000886 3.49336061,43.0015171 1.3806306,36.8570786 C-3.70237721,22.074201 6.23805248,5.481102 15.1320476,1.84731547 C24.5064916,-1.98276625 36.6154233,0.0749379992 42.2696242,8.65630479 C44.5861381,12.1720724 49.4606032,18.2154625 52.9548494,19.5719223 C69.9812539,26.1815405 75.3601228,12.0696437 88.2136384,22.074201 C101.067154,32.0787583 90.5925447,51.5543442 63.8601228,54.1158676 C53.2516461,55.1323809 61.6706697,79.8365164 50.07399,84.488399 C38.4773103,89.1402817 20.4477893,82.2479819 15.3655116,65.9667384 Z" id="Path-4" fill-opacity="0.25" fill="#50C1E3"></path>
                    <g id="Article" transform="translate(13.950943, 11.240868)" stroke="#06242D" stroke-linecap="round" stroke-linejoin="round" stroke-width="3">
                        <path d="M65,13 L65,54.1666667 C65,57.7565175 62.0898509,60.6666667 58.5,60.6666667 C54.9101491,60.6666667 52,57.7565175 52,54.1666667 L52,4.33333333 C52,1.94009942 50.0599006,0 47.6666667,0 L4.33333333,0 C1.94009942,0 0,1.94009942 0,4.33333333 L0,54.1666667 C0,57.7565175 2.91014913,60.6666667 6.5,60.6666667 L58.5,60.6666667" id="Path"></path>
                        <line x1="10.8333333" y1="39" x2="41.1666667" y2="39" id="Path"></line>
                        <line x1="10.8333333" y1="47.6666667" x2="28.1666667" y2="47.6666667" id="Path"></line>
                        <path d="M13,10.8333333 L39,10.8333333 C39,10.8333333 41.1666667,10.8333333 41.1666667,13 L41.1666667,26 C41.1666667,26 41.1666667,28.1666667 39,28.1666667 L13,28.1666667 C13,28.1666667 10.8333333,28.1666667 10.8333333,26 L10.8333333,13 C10.8333333,13 10.8333333,10.8333333 13,10.8333333" id="Path"></path>
                    </g>
                </g>
            </g>
        </g>
    </g>
</svg>