
<svg width="89px" height="74px" viewBox="0 0 89 74" version="1.1" xmlns="http://www.w3.org/2000/svg" xmlns:xlink="http://www.w3.org/1999/xlink">
    <title>Icon: down arrow next to a piece of paper</title>
    <g id="Page-Designs" stroke="none" stroke-width="1" fill="none" fill-rule="evenodd">
        <g id="Page-Builder-Modules-R1" transform="translate(-522.000000, -10490.000000)">
            <g id="Resource-Tile-Copy" transform="translate(425.000000, 10466.000000)">
                <g id="Group-3" transform="translate(97.653940, 24.211342)">
                    <path d="M29.6387071,5.346184 C35.0603945,3.66458658 40.2441892,0.73913668 45.9037693,0.301391744 C74.9313558,-1.94377114 54.3438549,8.58244825 62.4387698,24.2826177 C64.5108127,28.3013659 70.9327182,27.4812992 74.8814023,29.6839324 C78.3230878,31.6037544 82.4338285,33.2147864 84.4845884,36.5800946 C93.5939948,51.5286807 71.0140053,57.627742 64.2315683,61.8448013 C60.8534613,63.9451787 59.7790808,69.7570061 55.843105,70.3325815 C44.6514865,71.9691821 19.821979,75.1576048 8.48419462,63.4822579 C-8.16029951,46.3422032 0.841099766,12.1149194 25.4088232,6.87159064 L29.6387071,5.346184 Z" id="Path-3" fill-opacity="0.25" fill="#9091CE" transform="translate(43.309463, 36.000000) scale(-1, 1) translate(-43.309463, -36.000000) "></path>
                    <g id="File-download" transform="translate(22.346060, 7.788658)" stroke="#000000" stroke-linecap="round" stroke-linejoin="round" stroke-width="3">
                        <path d="M29.8666667,46.9333333 C29.8666667,56.3589931 37.5076736,64 46.9333333,64 C56.3589931,64 64,56.3589931 64,46.9333333 C64,37.5076736 56.3589931,29.8666667 46.9333333,29.8666667 C37.5076736,29.8666667 29.8666667,37.5076736 29.8666667,46.9333333" id="Path"></path>
                        <line x1="46.9333333" y1="38.4" x2="46.9333333" y2="55.4666667" id="Path"></line>
                        <line x1="46.9333333" y1="55.4666667" x2="40.5333333" y2="49.0666667" id="Path"></line>
                        <line x1="46.9333333" y1="55.4666667" x2="53.3333333" y2="49.0666667" id="Path"></line>
                        <line x1="8.53333333" y1="17.0666667" x2="38.4" y2="17.0666667" id="Path"></line>
                        <line x1="8.53333333" y1="29.8666667" x2="25.6" y2="29.8666667" id="Path"></line>
                        <line x1="8.53333333" y1="42.6666667" x2="19.2" y2="42.6666667" id="Path"></line>
                        <path d="M19.2,55.4666667 L4.26666667,55.4666667 C1.91025173,55.4666667 0,53.5564149 0,51.2 L0,4.26666667 C0,1.91025173 1.91025173,0 4.26666667,0 L34.5002667,0 C35.6310676,0 36.7155246,0.449370317 37.5153778,1.24871111 L45.6846222,9.41795556 C46.483963,10.2178088 46.9333333,11.3022657 46.9333333,12.4330667 L46.9333333,19.2" id="Path"></path>
                    </g>
                </g>
            </g>
        </g>
    </g>
</svg>