
<svg width="236px" height="220px" viewBox="0 0 236 220" version="1.1" xmlns="http://www.w3.org/2000/svg" xmlns:xlink="http://www.w3.org/1999/xlink">
    <title>Alert Icon</title>
    <g id="Page-Designs" stroke="none" stroke-width="1" fill="none" fill-rule="evenodd">
        <g id="Basic-Functionality-R1" transform="translate(-857.000000, -3512.000000)">
            <g id="Group-2" transform="translate(857.000000, 3518.000000)">
                <path d="M79.8598497,14.4049958 C94.4682852,9.87402495 108.435732,1.99156272 123.685156,0.812083311 C201.898375,-5.23738335 146.426498,23.12493 168.237796,65.4281644 C173.820801,76.2564582 191.124268,74.0468339 201.763778,79.9817067 C211.037209,85.1545604 222.113371,89.4953968 227.63903,98.5630328 C252.183819,138.841167 216.889885,137.396064 188.200287,156 C162.91316,172.397584 161.905448,213.029246 108.816817,213.029246 C68.4626626,213.029246 53.4092213,202.507991 22.8601911,171.049417 C-21.9874737,124.866492 2.26629659,32.6429772 68.4626626,18.5151192 L79.8598497,14.4049958 Z" id="Path-3" fill="#FBECCE" transform="translate(117.945876, 106.514623) scale(-1, 1) translate(-117.945876, -106.514623) "></path>
                <g id="Group" transform="translate(41.887347, 0.000000)" stroke="#06242D" stroke-width="12">
                    <path d="M88.1250886,146.873135 C86.5027521,146.873135 85.1875886,145.557972 85.1875886,143.935635 C85.1875886,142.313299 86.5027521,140.998135 88.1250886,140.998135" id="Path"></path>
                    <path d="M88.1250886,146.873135 C89.747425,146.873135 91.0625886,145.557972 91.0625886,143.935635 C91.0625886,142.313299 89.747425,140.998135 88.1250886,140.998135" id="Path"></path>
                    <line x1="88.1250886" y1="117.498135" x2="88.1250886" y2="58.7481354" id="Path" stroke-linecap="round"></line>
                    <path d="M100.822922,7.9098021 C98.4445674,3.06789233 93.5195914,0 88.1250886,0 C82.7305858,0 77.8056098,3.06789233 75.4272552,7.9098021 L1.22208856,159.077469 C-0.593881944,162.771629 -0.374334492,167.141492 1.80275537,170.635036 C3.97984523,174.12858 7.80604462,176.250867 11.9224219,176.248153 L164.327755,176.248153 C168.445903,176.255226 172.275339,174.133792 174.453368,170.638741 C176.631397,167.143691 176.848752,162.771298 175.028089,159.077469 L100.822922,7.9098021 Z" id="Path" stroke-linecap="round" stroke-linejoin="round"></path>
                </g>
            </g>
        </g>
    </g>
</svg>