
<svg width="281px" height="258px" viewBox="0 0 281 258" version="1.1" xmlns="http://www.w3.org/2000/svg" xmlns:xlink="http://www.w3.org/1999/xlink">
    <g id="Page-Designs" stroke="none" stroke-width="1" fill="none" fill-rule="evenodd">
        <g id="Custom-Functionality-R1" transform="translate(-834.000000, -215.000000)">
            <g id="Group-4" transform="translate(834.000000, 215.000000)">
                <path d="M46.0884061,198.101893 C41.299254,182.741343 51.3142941,159.056062 41.7300186,143.453371 C29.6122113,123.726226 10.4782338,129.136018 4.14116142,110.683918 C-11.105173,66.2900896 18.7108573,16.4600632 45.3881376,5.54759415 C73.5065101,-5.95436059 109.826899,0.225043103 126.786511,25.995379 C133.734827,36.5534304 148.355644,54.7020771 158.836534,58.7756035 C209.90674,78.6246653 226.040501,36.2458311 264.594248,66.2900896 C303.147995,96.334348 271.729708,154.820648 191.546585,162.513049 C159.726767,165.565697 184.979384,239.75363 150.195479,253.723501 C115.411575,267.693371 61.3325505,246.9954 46.0884061,198.101893 Z" id="Path-4" fill="#FBECCE"></path>
                <g id="Article" transform="translate(41.845449, 33.756969)" stroke="#06242D" stroke-linecap="round" stroke-linejoin="round" stroke-width="9">
                    <path d="M194.965613,39.0397445 L194.965613,162.665602 C194.965613,173.44613 186.236705,182.185474 175.469052,182.185474 C164.701398,182.185474 155.972491,173.44613 155.972491,162.665602 L155.972491,13.0132482 C155.972491,5.82622965 150.153219,0 142.974783,0 L12.9977076,0 C5.81927189,0 0,5.82622965 0,13.0132482 L0,162.665602 C0,173.44613 8.72890783,182.185474 19.4965613,182.185474 L175.469052,182.185474" id="Path"></path>
                    <line x1="32.4942689" y1="117.119233" x2="123.478222" y2="117.119233" id="Path"></line>
                    <line x1="32.4942689" y1="143.14573" x2="84.4850991" y2="143.14573" id="Path"></line>
                    <path d="M38.9931227,32.5331204 L116.979368,32.5331204 C116.979368,32.5331204 123.478222,32.5331204 123.478222,39.0397445 L123.478222,78.0794889 C123.478222,78.0794889 123.478222,84.586113 116.979368,84.586113 L38.9931227,84.586113 C38.9931227,84.586113 32.4942689,84.586113 32.4942689,78.0794889 L32.4942689,39.0397445 C32.4942689,39.0397445 32.4942689,32.5331204 38.9931227,32.5331204" id="Path"></path>
                </g>
            </g>
        </g>
    </g>
</svg>