
<svg width="84px" height="80px" viewBox="0 0 84 80" version="1.1" xmlns="http://www.w3.org/2000/svg" xmlns:xlink="http://www.w3.org/1999/xlink">
    <title>Icon: going through a door</title>
    <g id="Page-Designs" stroke="none" stroke-width="1" fill="none" fill-rule="evenodd">
        <g id="Page-Builder-Modules-R1" transform="translate(-218.000000, -10490.000000)">
            <g id="Resource-Tile" transform="translate(119.000000, 10466.000000)">
                <g id="Group-2" transform="translate(99.000000, 24.000000)">
                    <path d="M26.3879235,12.0279493 C33.5587394,5.05821079 62.3651049,-10.3204781 64.072247,10.5163418 C64.4811366,15.5071141 60.7403319,21.187783 63.2573577,25.5167066 C65.5175778,29.4039612 71.9102298,28.2654893 75.7515069,30.6029947 C94.4350318,41.9723491 73.1661395,57.3230838 67.491828,64.0306908 C64.908115,67.0848995 65.2539168,72.1991635 62.228283,74.8162805 C41.7499181,92.5296855 25.1908946,59.1641587 25.1815919,59.16105 C18.7779787,57.0211643 11.6359553,60.9968009 4.94722494,60.0768773 C0.60168747,59.4792209 -0.294288041,50.9621882 0.0751222294,43.2325485 C0.950546814,24.9149294 6.86615549,18.0296123 23.731532,15.2431924 L26.3879235,12.0279493 Z" id="Path-2" fill-opacity="0.25" fill="#5FC291"></path>
                    <g id="Login" transform="translate(9.118191, 7.612157)" stroke="#000000" stroke-width="3">
                        <path d="M55.4666835,51.163698 L55.4666835,55.4303562 C55.4666835,57.7867665 53.5564356,59.6970144 51.2000253,59.6970144 L38.4000506,59.6970144" id="Path" stroke-linecap="round" stroke-linejoin="round"></path>
                        <path d="M38.4000506,8.49711555 L51.2000253,8.49711555 C53.5564356,8.49711555 55.4666835,10.4073635 55.4666835,12.7637738 L55.4666835,17.030432" id="Path" stroke-linecap="round" stroke-linejoin="round"></path>
                        <path d="M27.4205167,63.9352283 L1.82056723,60.4081242 C0.765925326,60.2518159 -0.0113938978,59.340895 0,58.274795 L0,8.41178239 C0.0169566074,7.42255582 0.711720121,6.57470882 1.67834529,6.36378643 L27.2782947,0.0491322367 C27.9078047,-0.0883321025 28.5657193,0.0660915434 29.0683281,0.469283264 C29.570937,0.872474985 29.8643856,1.48123283 29.8667341,2.12557258 L29.8667341,61.858788 C29.8667341,62.4765878 29.5949872,63.0631194 29.1239911,63.4629184 C28.652995,63.8627175 28.0301394,64.0354121 27.4205167,63.9352283 L27.4205167,63.9352283 L27.4205167,63.9352283 Z" id="Path" stroke-linecap="round" stroke-linejoin="round"></path>
                        <polyline id="Path" stroke-linecap="round" stroke-linejoin="round" points="49.0666962 25.5637485 40.5333797 34.097065 64 34.097065"></polyline>
                        <line x1="49.0666962" y1="42.6303815" x2="40.5333797" y2="34.097065" id="Path" stroke-linecap="round" stroke-linejoin="round"></line>
                        <path d="M18.8445336,33.0474671 C18.255431,33.0474671 17.7778691,32.5699051 17.7778691,31.9808025 C17.7778691,31.3916999 18.255431,30.914138 18.8445336,30.914138" id="Path"></path>
                        <path d="M18.8445336,33.0474671 C19.4336362,33.0474671 19.9111982,32.5699051 19.9111982,31.9808025 C19.9111982,31.3916999 19.4336362,30.914138 18.8445336,30.914138" id="Path"></path>
                    </g>
                </g>
            </g>
        </g>
    </g>
</svg>